HIERARCHY
ROOT Hips
{
  OFFSET 5.84602e-005 68.8428 3.50346
  CHANNELS 6 Xposition Yposition Zposition Zrotation Xrotation Yrotation
  JOINT Spine
  {
    OFFSET 0 8.597 -4.6522
    CHANNELS 3 Zrotation Xrotation Yrotation
    JOINT Spine1
    {
      OFFSET 0 7.8454 0.4098
      CHANNELS 3 Zrotation Xrotation Yrotation
      JOINT Spine2
      {
        OFFSET 0 9.7078 -2.1609
        CHANNELS 3 Zrotation Xrotation Yrotation
        JOINT Neck
        {
          OFFSET 0 21.8761 -0.4549
          CHANNELS 3 Zrotation Xrotation Yrotation
          JOINT Head
          {
            OFFSET 0 12.3537 3.3602
            CHANNELS 3 Zrotation Xrotation Yrotation
            End Site
            {
              OFFSET 0.0001 18.9506 0.5657
            }
          }
        }
        JOINT LeftShoulder
        {
          OFFSET 2.2086 21.1115 7.2329
          CHANNELS 3 Zrotation Xrotation Yrotation
          JOINT LeftArm
          {
            OFFSET 13.1193 3.0282 -4.8998
            CHANNELS 3 Zrotation Xrotation Yrotation
            JOINT LeftForeArm
            {
              OFFSET 27.4081 -0.0973053 -0.2375
              CHANNELS 3 Zrotation Xrotation Yrotation
              JOINT LeftHand
              {
                OFFSET 22.8641 0.0662994 -0.1369
                CHANNELS 3 Zrotation Xrotation Yrotation
                JOINT LeftHandIndex1
                {
                  OFFSET 8.8614 0.775009 2.4612
                  CHANNELS 3 Zrotation Xrotation Yrotation
                  JOINT LeftHandIndex2
                  {
                    OFFSET 3.3146 -0.808304 0.5841
                    CHANNELS 3 Zrotation Xrotation Yrotation
                    JOINT LeftHandIndex3
                    {
                      OFFSET 2.2628 -0.552002 0.3989
                      CHANNELS 3 Zrotation Xrotation Yrotation
                      End Site
                      {
                        OFFSET 1.6102 -0.4807 0.2612
                      }
                    }
                  }
                }
                JOINT LeftHandMiddle1
                {
                  OFFSET 8.9937 0.895004 0.2143
                  CHANNELS 3 Zrotation Xrotation Yrotation
                  JOINT LeftHandMiddle2
                  {
                    OFFSET 4.0984 0.0113983 -0.0242
                    CHANNELS 3 Zrotation Xrotation Yrotation
                    JOINT LeftHandMiddle3
                    {
                      OFFSET 2.2716 0.00689697 -0.0138001
                      CHANNELS 3 Zrotation Xrotation Yrotation
                      End Site
                      {
                        OFFSET 2.0404 -0.1441 0.0027
                      }
                    }
                  }
                }
                JOINT LeftHandRing1
                {
                  OFFSET 8.5234 0.597198 -2.0164
                  CHANNELS 3 Zrotation Xrotation Yrotation
                  JOINT LeftHandRing2
                  {
                    OFFSET 3.7188 -0.188293 -0.2328
                    CHANNELS 3 Zrotation Xrotation Yrotation
                    JOINT LeftHandRing3
                    {
                      OFFSET 2.1191 -0.106598 -0.1332
                      CHANNELS 3 Zrotation Xrotation Yrotation
                      End Site
                      {
                        OFFSET 1.8737 -0.2304 -0.0886
                      }
                    }
                  }
                }
                JOINT LeftHandPinky1
                {
                  OFFSET 7.9094 -0.601089 -3.4825
                  CHANNELS 3 Zrotation Xrotation Yrotation
                  JOINT LeftHandPinky2
                  {
                    OFFSET 2.2874 -0.477005 -0.6314
                    CHANNELS 3 Zrotation Xrotation Yrotation
                    JOINT LeftHandPinky3
                    {
                      OFFSET 1.6774 -0.349396 -0.4633
                      CHANNELS 3 Zrotation Xrotation Yrotation
                      End Site
                      {
                        OFFSET 1.4888 -0.4091 -0.3416
                      }
                    }
                  }
                }
                JOINT LeftHandThumb1
                {
                  OFFSET 1.833 -1.3875 1.3896
                  CHANNELS 3 Zrotation Xrotation Yrotation
                  JOINT LeftHandThumb2
                  {
                    OFFSET 3.4129 -1.121 2.5732
                    CHANNELS 3 Zrotation Xrotation Yrotation
                    JOINT LeftHandThumb3
                    {
                      OFFSET 2.2474 -0.804199 1.6192
                      CHANNELS 3 Zrotation Xrotation Yrotation
                      End Site
                      {
                        OFFSET 1.6527 -0.5689 1.1317
                      }
                    }
                  }
                }
              }
            }
          }
        }
        JOINT RightShoulder
        {
          OFFSET -2.2086 21.1115 7.2329
          CHANNELS 3 Zrotation Xrotation Yrotation
          JOINT RightArm
          {
            OFFSET -13.1216 3.0287 -4.9007
            CHANNELS 3 Zrotation Xrotation Yrotation
            JOINT RightForeArm
            {
              OFFSET -27.4081 -0.0973053 -0.2375
              CHANNELS 3 Zrotation Xrotation Yrotation
              JOINT RightHand
              {
                OFFSET -22.8641 0.0664063 -0.1369
                CHANNELS 3 Zrotation Xrotation Yrotation
                JOINT RightHandIndex1
                {
                  OFFSET -8.8614 0.774994 2.4612
                  CHANNELS 3 Zrotation Xrotation Yrotation
                  JOINT RightHandIndex2
                  {
                    OFFSET -3.3146 -0.808304 0.5841
                    CHANNELS 3 Zrotation Xrotation Yrotation
                    JOINT RightHandIndex3
                    {
                      OFFSET -2.2628 -0.552002 0.3989
                      CHANNELS 3 Zrotation Xrotation Yrotation
                      End Site
                      {
                        OFFSET -1.6102 -0.4807 0.2612
                      }
                    }
                  }
                }
                JOINT RightHandMiddle1
                {
                  OFFSET -8.9937 0.894989 0.2143
                  CHANNELS 3 Zrotation Xrotation Yrotation
                  JOINT RightHandMiddle2
                  {
                    OFFSET -4.0984 0.0113983 -0.0242
                    CHANNELS 3 Zrotation Xrotation Yrotation
                    JOINT RightHandMiddle3
                    {
                      OFFSET -2.2716 0.00691223 -0.0138001
                      CHANNELS 3 Zrotation Xrotation Yrotation
                      End Site
                      {
                        OFFSET -2.0404 -0.1441 0.0027
                      }
                    }
                  }
                }
                JOINT RightHandRing1
                {
                  OFFSET -8.5234 0.597198 -2.0164
                  CHANNELS 3 Zrotation Xrotation Yrotation
                  JOINT RightHandRing2
                  {
                    OFFSET -3.7188 -0.188309 -0.2328
                    CHANNELS 3 Zrotation Xrotation Yrotation
                    JOINT RightHandRing3
                    {
                      OFFSET -2.1191 -0.106598 -0.1332
                      CHANNELS 3 Zrotation Xrotation Yrotation
                      End Site
                      {
                        OFFSET -1.8737 -0.2304 -0.0886
                      }
                    }
                  }
                }
                JOINT RightHandPinky1
                {
                  OFFSET -7.9094 -0.601105 -3.4825
                  CHANNELS 3 Zrotation Xrotation Yrotation
                  JOINT RightHandPinky2
                  {
                    OFFSET -2.2874 -0.477005 -0.6314
                    CHANNELS 3 Zrotation Xrotation Yrotation
                    JOINT RightHandPinky3
                    {
                      OFFSET -1.6774 -0.349396 -0.4633
                      CHANNELS 3 Zrotation Xrotation Yrotation
                      End Site
                      {
                        OFFSET -1.4888 -0.4091 -0.3416
                      }
                    }
                  }
                }
                JOINT RightHandThumb1
                {
                  OFFSET -1.833 -1.38751 1.3896
                  CHANNELS 3 Zrotation Xrotation Yrotation
                  JOINT RightHandThumb2
                  {
                    OFFSET -3.41299 -1.12099 2.5732
                    CHANNELS 3 Zrotation Xrotation Yrotation
                    JOINT RightHandThumb3
                    {
                      OFFSET -2.24741 -0.804108 1.6192
                      CHANNELS 3 Zrotation Xrotation Yrotation
                      End Site
                      {
                        OFFSET -1.6527 -0.5689 1.1317
                      }
                    }
                  }
                }
              }
            }
          }
        }
      }
    }
  }
  JOINT RightUpLeg
  {
    OFFSET -9.1966 3.8861 -0.7581
    CHANNELS 3 Zrotation Xrotation Yrotation
    JOINT RightLeg
    {
      OFFSET -0.7359 -41.0265 0
      CHANNELS 3 Zrotation Xrotation Yrotation
      JOINT RightFoot
      {
        OFFSET 0 -40.2855 0
        CHANNELS 3 Zrotation Xrotation Yrotation
        JOINT RightToeBase
        {
          OFFSET 0 -5.6122 11.7359
          CHANNELS 3 Zrotation Xrotation Yrotation
          End Site
          {
            OFFSET 0 0 7.8731
          }
        }
      }
    }
  }
  JOINT LeftUpLeg
  {
    OFFSET 9.1965 3.8864 -0.7581
    CHANNELS 3 Zrotation Xrotation Yrotation
    JOINT LeftLeg
    {
      OFFSET 0.7359 -41.0268 0
      CHANNELS 3 Zrotation Xrotation Yrotation
      JOINT LeftFoot
      {
        OFFSET 0 -40.2855 0
        CHANNELS 3 Zrotation Xrotation Yrotation
        JOINT LeftToeBase
        {
          OFFSET 0 -5.6122 11.7359
          CHANNELS 3 Zrotation Xrotation Yrotation
          End Site
          {
            OFFSET 0 0 7.8731
          }
        }
      }
    }
  }
}
MOTION
Frames:	4
Frame Time:	0.0333333
-0.782185 12.0357 21.5681 -1.44609e-014 46.6934 -180 -0.338054 14.6006 -0.0105819 -0.709762 29.201 0.0753096 -0.709762 29.201 0.0753096 -10.043 -31.5043 -5.51023 -10.6626 -11.1541 -26.6703 11.0971 8.91136 -20.698 -54.6352 6.47103 -31.5278 -6.72642 0.93917 0.15292 -7.76743 -6.1546 -15.3104 -1.59028e-015 6.36111e-015 -7.95139e-016 5.09634e-007 -1.17019e-006 -1.07819e-006 7.95139e-016 9.54166e-015 -2.38542e-015 -1.59028e-015 6.36111e-015 -7.95139e-016 -0.0145696 -9.13843e-005 -3.76476e-007 -7.95139e-016 6.36111e-015 -0 -1.59028e-015 6.36111e-015 -7.95139e-016 -0.0187961 -0.00118126 6.09564e-005 -7.95139e-016 -9.54166e-015 2.38542e-015 -1.59028e-015 6.36111e-015 -7.95139e-016 -0.0122273 -0.00323877 0.000674529 7.95139e-016 -3.18055e-015 7.95139e-016 -1.59028e-015 6.36111e-015 -7.95139e-016 5.09634e-007 -1.17019e-006 -1.07819e-006 7.95139e-016 9.54166e-015 -2.38542e-015 -10.4917 9.65161 21.1609 53.8644 6.02805 31.0464 6.30789 0.947527 -0.153345 7.87286 -7.10989 15.8476 -4.83147e-007 -1.20892e-006 1.04934e-006 -4.83147e-007 -1.20892e-006 1.04934e-006 -4.83147e-007 -1.20892e-006 1.04934e-006 -4.83147e-007 -1.20892e-006 1.04934e-006 0.0150035 -9.17597e-005 -2.25429e-006 -4.83101e-007 -1.20879e-006 1.04949e-006 -4.83147e-007 -1.20892e-006 1.04934e-006 0.0189542 -0.00118678 -5.68067e-005 -4.83078e-007 -1.20875e-006 1.04954e-006 -4.83147e-007 -1.20892e-006 1.04934e-006 0.0122269 -0.00323674 -0.000667876 -4.83073e-007 -1.20882e-006 1.04948e-006 -4.83147e-007 -1.20892e-006 1.04934e-006 -4.83147e-007 -1.20892e-006 1.04934e-006 -4.83147e-007 -1.20892e-006 1.04934e-006 -46.7127 -27.1075 -81.9595 -7.39342 49.3675 59.4174 -15.05 28.2211 -32.2547 -4.49771e-009 -3.23327e-006 -2.31239e-006 46.6952 -27.1091 81.9405 7.37061 49.3664 -59.4011 15.0375 28.2185 32.2468 7.06869e-007 -3.3406e-006 5.34019e-006 
-0.782191 11.9044 21.8541 -1.42106e-014 45.7145 -180 -0.338478 14.6532 -0.00962902 -0.711216 29.3061 0.0778781 -0.711216 29.3061 0.0778779 -9.8487 -30.4462 -5.27895 -9.95062 -10.7831 -26.3832 11.339 8.37692 -20.7959 -54.6352 6.47101 -31.5278 -6.72646 0.939162 0.152926 -7.22628 -6.63616 -15.9713 -1.02308e-006 2.34328e-006 2.15305e-006 -1.21124e-006 -9.81417e-007 3.4198e-006 -1.02308e-006 2.34328e-006 2.15305e-006 -1.02308e-006 2.34328e-006 2.15305e-006 -0.014576 -8.90556e-005 -5.52145e-007 -1.02299e-006 2.343e-006 2.15335e-006 -1.02308e-006 2.34328e-006 2.15305e-006 -0.0187983 -0.00117871 6.69578e-005 -1.02295e-006 2.34293e-006 2.15345e-006 -1.02308e-006 2.34328e-006 2.15305e-006 -0.0122274 -0.00323364 0.000674243 -1.02294e-006 2.34307e-006 2.15333e-006 -1.02308e-006 2.34328e-006 2.15305e-006 -1.21124e-006 -9.81417e-007 3.4198e-006 -1.02308e-006 2.34328e-006 2.15305e-006 -10.6913 9.16752 21.2947 53.8644 6.02807 31.0464 6.30786 0.947525 -0.153354 7.3469 -7.65876 16.5425 -4.85208e-007 -1.2098e-006 1.04818e-006 -1.65742e-006 -3.23241e-007 4.51596e-006 4.85208e-007 1.2098e-006 -1.04818e-006 -4.85208e-007 -1.2098e-006 1.04818e-006 0.0149898 -9.33504e-005 -2.46431e-006 4.85163e-007 1.20966e-006 -1.04834e-006 -4.85208e-007 -1.2098e-006 1.04818e-006 0.0189902 -0.001198 -5.79211e-005 4.8514e-007 1.20963e-006 -1.04839e-006 -4.85208e-007 -1.2098e-006 1.04818e-006 0.0123065 -0.00326036 -0.000678649 4.85135e-007 1.2097e-006 -1.04832e-006 -4.85208e-007 -1.2098e-006 1.04818e-006 -1.65742e-006 -3.23241e-007 4.51596e-006 4.85208e-007 1.2098e-006 -1.04818e-006 -46.7103 -27.929 -82.2775 -7.04751 48.811 59.1819 -14.6572 28.5325 -32.6292 3.18055e-015 -4.77083e-015 -6.36111e-015 46.6916 -27.9305 82.2572 7.02343 48.8095 -59.1644 14.6448 28.5299 32.621 3.21383e-007 1.69113e-006 1.41916e-007 
-0.782197 11.7739 22.1424 -1.39691e-014 44.736 -180 -0.338911 14.7057 -0.00867671 -0.712691 29.4111 0.0804509 -0.712691 29.4111 0.0804508 -9.66069 -29.3833 -5.05342 -9.24001 -10.4079 -26.1007 11.5795 7.84214 -20.8914 -54.6352 6.47104 -31.5278 -6.72644 0.93916 0.152913 -6.6904 -7.12371 -16.628 -5.13508e-007 1.173e-006 1.07491e-006 -7.95139e-015 -3.18055e-015 -7.15625e-015 -3.02354e-007 1.29362e-006 1.68138e-006 -5.13508e-007 1.173e-006 1.07491e-006 -0.0145876 -8.82744e-005 -1.37846e-006 -1.02693e-006 2.34573e-006 2.15013e-006 -5.13508e-007 1.173e-006 1.07491e-006 -0.0187904 -0.00118002 6.06032e-005 -1.02688e-006 2.34566e-006 2.15022e-006 -5.13508e-007 1.173e-006 1.07491e-006 -0.0123142 -0.00325887 0.00067536 -3.03375e-007 1.29315e-006 1.68159e-006 -5.13508e-007 1.173e-006 1.07491e-006 -7.95139e-015 -3.18055e-015 -7.15625e-015 -3.02354e-007 1.29362e-006 1.68138e-006 -10.8894 8.68306 21.4267 53.8644 6.02807 31.0464 6.3079 0.94752 -0.153346 6.8272 -8.21366 17.233 -2.38542e-015 6.36111e-015 -7.95139e-016 -6.27627e-006 -4.63377e-007 -5.89401e-008 9.46572e-007 1.20201e-006 -2.58096e-007 -2.38542e-015 6.36111e-015 -7.95139e-016 0.0150315 -9.37045e-005 2.80049e-007 -3.18055e-015 -1.90833e-014 -0 -2.38542e-015 6.36111e-015 -7.95139e-016 0.0190364 -0.00119024 -5.79786e-005 -7.95139e-016 3.18055e-015 7.95139e-016 -2.38542e-015 6.36111e-015 -7.95139e-016 0.0122849 -0.0032492 -0.000673809 -7.95139e-016 6.36111e-015 7.95139e-016 -2.38542e-015 6.36111e-015 -7.95139e-016 -6.27627e-006 -4.63377e-007 -5.89401e-008 9.46572e-007 1.20201e-006 -2.58096e-007 -46.713 -28.7503 -82.5975 -6.70884 48.253 58.9541 -14.2589 28.8418 -33.0073 -3.22352e-007 -1.54304e-006 -2.4518e-006 46.6932 -28.7517 82.5761 6.68366 48.2513 -58.9356 14.2465 28.8391 32.9988 5.87495e-008 1.36765e-006 -2.53563e-006 
-0.782203 11.6442 22.4327 -1.37356e-014 43.7579 -180 -0.339338 14.7582 -0.00771656 -0.714162 29.5161 0.0830435 -0.714163 29.5161 0.0830436 -9.47732 -28.3165 -4.83343 -8.53083 -10.0286 -25.8227 11.8189 7.30706 -20.9845 -54.6352 6.47103 -31.5278 -6.72643 0.939158 0.152918 -6.15985 -7.61705 -17.2804 -5.15527e-007 1.17428e-006 1.07335e-006 -1.03105e-006 2.34857e-006 2.1467e-006 -5.15527e-007 1.17428e-006 1.07335e-006 -5.15527e-007 1.17428e-006 1.07335e-006 -0.0145993 -8.81543e-005 -2.48338e-006 -5.15482e-007 1.17415e-006 1.0735e-006 -5.15527e-007 1.17428e-006 1.07335e-006 -0.0187477 -0.00117715 5.82238e-005 -5.15459e-007 1.17411e-006 1.07355e-006 -5.15527e-007 1.17428e-006 1.07335e-006 -0.0122808 -0.00325111 0.000681536 -5.15452e-007 1.17418e-006 1.07349e-006 -5.15527e-007 1.17428e-006 1.07335e-006 -1.03105e-006 2.34857e-006 2.1467e-006 -5.15527e-007 1.17428e-006 1.07335e-006 -11.0861 8.19822 21.5567 53.8644 6.02805 31.0464 6.30788 0.94754 -0.15336 6.31384 -8.77437 17.919 2.38542e-015 -3.18055e-015 -1.59028e-015 -1.16654e-006 8.80833e-007 3.4687e-006 -9.78889e-007 -2.42263e-006 2.09215e-006 2.38542e-015 -3.18055e-015 -1.59028e-015 0.0150022 -9.10437e-005 1.43128e-006 -9.78799e-007 -2.42235e-006 2.09246e-006 2.38542e-015 -3.18055e-015 -1.59028e-015 0.0189795 -0.00118909 -5.39793e-005 -9.78754e-007 -2.42229e-006 2.09256e-006 2.38542e-015 -3.18055e-015 -1.59028e-015 0.0122903 -0.00325879 -0.000674835 -9.78743e-007 -2.42243e-006 2.09243e-006 2.38542e-015 -3.18055e-015 -1.59028e-015 -1.16654e-006 8.80833e-007 3.4687e-006 -9.78889e-007 -2.42263e-006 2.09215e-006 -46.721 -29.5714 -82.9199 -6.37734 47.694 58.7338 -13.855 29.1489 -33.3891 1.13696e-006 5.25341e-007 -2.64126e-007 46.6999 -29.5727 82.8972 6.35104 47.692 -58.7143 13.8428 29.1461 33.3802 1.51616e-006 -6.99949e-007 -3.5223e-007 
